<svg xmlns="http://www.w3.org/2000/svg" width="3200" height="1800" viewBox="0 0 3200 1800">
  <defs>
    <filter id="shadow" x="-20%" y="-20%" width="140%" height="150%">
      <feDropShadow dx="0" dy="10" stdDeviation="14" flood-color="#101828" flood-opacity="0.10"/>
    </filter>
    <marker id="arrow" viewBox="0 0 12 12" refX="10" refY="6" markerWidth="12" markerHeight="12" orient="auto-start-reverse">
      <path d="M 0 0 L 12 6 L 0 12 z" fill="#667085"/>
    </marker>
    <style>
      .title { font: 700 62px Inter, -apple-system, BlinkMacSystemFont, "Segoe UI", Arial, sans-serif; fill: #101828; }
      .subtitle { font: 400 27px Inter, -apple-system, BlinkMacSystemFont, "Segoe UI", Arial, sans-serif; fill: #667085; }
      .section { font: 700 25px Inter, -apple-system, BlinkMacSystemFont, "Segoe UI", Arial, sans-serif; letter-spacing: 2px; fill: #344054; }
      .card-title { font: 700 26px Inter, -apple-system, BlinkMacSystemFont, "Segoe UI", Arial, sans-serif; fill: #101828; }
      .card-copy { font: 400 21px Inter, -apple-system, BlinkMacSystemFont, "Segoe UI", Arial, sans-serif; fill: #475467; }
      .small { font: 600 18px Inter, -apple-system, BlinkMacSystemFont, "Segoe UI", Arial, sans-serif; fill: #667085; letter-spacing: 0.5px; }
      .pill { font: 700 20px Inter, -apple-system, BlinkMacSystemFont, "Segoe UI", Arial, sans-serif; letter-spacing: 1px; }
      .connector { fill: none; stroke: #667085; stroke-width: 5; marker-end: url(#arrow); }
      .connector-soft { fill: none; stroke: #98A2B3; stroke-width: 4; marker-end: url(#arrow); }
      .connector-dash { fill: none; stroke: #98A2B3; stroke-width: 4; stroke-dasharray: 14 11; marker-end: url(#arrow); }
    </style>
  </defs>

  <text x="110" y="95" class="title">OCI DIS Architect</text>
  <text x="110" y="140" class="subtitle">Application components, deterministic engines, and production container runtime</text>

  <rect x="2540" y="63" width="550" height="66" rx="33" fill="#D7462F"/>
  <text x="2815" y="105" text-anchor="middle" class="pill" fill="#FFFFFF">ARCHITECT · ANALYST · ADMIN</text>

  <!-- Main container frames -->
  <rect x="90" y="190" width="625" height="1475" rx="30" fill="#F8FBFF" stroke="#86BCEB" stroke-width="4" filter="url(#shadow)"/>
  <rect x="755" y="190" width="1135" height="1475" rx="30" fill="#FCFAFF" stroke="#A997D0" stroke-width="4" filter="url(#shadow)"/>
  <rect x="1930" y="190" width="1180" height="530" rx="30" fill="#F8FCFA" stroke="#79B89A" stroke-width="4" filter="url(#shadow)"/>
  <rect x="1930" y="765" width="1180" height="420" rx="30" fill="#FAFBFC" stroke="#98A2B3" stroke-width="4" filter="url(#shadow)"/>
  <rect x="1930" y="1230" width="1180" height="435" rx="30" fill="#FFFAF9" stroke="#E39B8F" stroke-width="4" filter="url(#shadow)"/>

  <text x="130" y="245" class="section">WEB CONTAINER</text>
  <text x="130" y="280" class="subtitle">Next.js 15 · Node.js 26</text>

  <text x="795" y="245" class="section">API CONTAINER</text>
  <text x="795" y="280" class="subtitle">FastAPI · Python 3.12 · REST API v1</text>

  <text x="1970" y="245" class="section">ASYNCHRONOUS CONTAINERS</text>
  <text x="1970" y="280" class="subtitle">Celery workloads isolated by queue</text>

  <text x="1970" y="820" class="section">PERSISTENCE CONTAINERS</text>
  <text x="1970" y="855" class="subtitle">Durable records, coordination, and artifacts</text>

  <text x="1970" y="1285" class="section">GOVERNED OCI SERVICES</text>
  <text x="1970" y="1320" class="subtitle">External capabilities with bounded authority</text>

  <!-- Web components -->
  <g>
    <rect x="130" y="335" width="545" height="150" rx="18" fill="#FFFFFF" stroke="#3287D5" stroke-width="3"/>
    <text x="165" y="390" class="card-title">Projects &amp; Dashboard</text>
    <text x="165" y="430" class="card-copy">Workspace KPIs, risks, maturity</text>

    <rect x="130" y="520" width="545" height="170" rx="18" fill="#FFFFFF" stroke="#3287D5" stroke-width="3"/>
    <text x="165" y="575" class="card-title">Import · Capture · Catalog</text>
    <text x="165" y="615" class="card-copy">Offline ingestion and governed</text>
    <text x="165" y="649" class="card-copy">integration inventory</text>

    <rect x="130" y="725" width="545" height="170" rx="18" fill="#FFFFFF" stroke="#3287D5" stroke-width="3"/>
    <text x="165" y="780" class="card-title">Topology &amp; Design Canvas</text>
    <text x="165" y="820" class="card-copy">Dependency map and integration</text>
    <text x="165" y="854" class="card-copy">route modeling</text>

    <rect x="130" y="930" width="545" height="170" rx="18" fill="#FFFFFF" stroke="#3287D5" stroke-width="3"/>
    <text x="165" y="985" class="card-title">BOM &amp; Cost</text>
    <text x="165" y="1025" class="card-copy">SKU pricing, environments,</text>
    <text x="165" y="1059" class="card-copy">monthly rollout and exports</text>

    <rect x="130" y="1135" width="545" height="170" rx="18" fill="#FFFFFF" stroke="#3287D5" stroke-width="3"/>
    <text x="165" y="1190" class="card-title">Library &amp; Operations</text>
    <text x="165" y="1230" class="card-copy">Patterns, products, pricing,</text>
    <text x="165" y="1264" class="card-copy">assumptions and agent status</text>

    <rect x="130" y="1340" width="545" height="245" rx="18" fill="#EAF5FF" stroke="#3287D5" stroke-width="3"/>
    <text x="165" y="1397" class="card-title">Contextual App Assistant</text>
    <text x="165" y="1437" class="card-copy">Session-isolated support with</text>
    <text x="165" y="1471" class="card-copy">governed App-wide evidence</text>
    <rect x="165" y="1511" width="232" height="44" rx="22" fill="#D7462F"/>
    <text x="281" y="1540" text-anchor="middle" class="small" fill="#FFFFFF">ADVISORY EXPERIENCE</text>
  </g>

  <!-- API components -->
  <rect x="805" y="335" width="1035" height="135" rx="18" fill="#EEE8FA" stroke="#7B61B2" stroke-width="3"/>
  <text x="845" y="389" class="card-title">REST API v1 · OpenAPI 3.1 · RBAC</text>
  <text x="845" y="430" class="card-copy">Typed contracts, validation, orchestration and readiness</text>

  <rect x="805" y="515" width="315" height="210" rx="18" fill="#FFFFFF" stroke="#7B61B2" stroke-width="3"/>
  <text x="835" y="570" class="card-title">Catalog</text>
  <text x="835" y="608" class="card-copy">Projects · Imports</text>
  <text x="835" y="642" class="card-copy">Governance · Graph</text>
  <text x="835" y="676" class="card-copy">Dashboard · Audit</text>

  <rect x="1165" y="515" width="315" height="210" rx="18" fill="#FFFFFF" stroke="#7B61B2" stroke-width="3"/>
  <text x="1195" y="570" class="card-title">Commercial</text>
  <text x="1195" y="608" class="card-copy">Pricing · BOM</text>
  <text x="1195" y="642" class="card-copy">Scenarios · Exports</text>
  <text x="1195" y="676" class="card-copy">Object storage</text>

  <rect x="1525" y="515" width="315" height="210" rx="18" fill="#FFFFFF" stroke="#7B61B2" stroke-width="3"/>
  <text x="1555" y="570" class="card-title">AI &amp; Support</text>
  <text x="1555" y="608" class="card-copy">AI Review · Agents</text>
  <text x="1555" y="642" class="card-copy">Context grounding</text>
  <text x="1555" y="676" class="card-copy">Human approvals</text>

  <text x="805" y="810" class="section">DETERMINISTIC AUTHORITY</text>
  <text x="805" y="847" class="subtitle">Pure engines and governed service rules</text>

  <rect x="805" y="895" width="315" height="260" rx="18" fill="#FFF7E8" stroke="#D38A24" stroke-width="3"/>
  <text x="835" y="952" class="card-title">Calc Engine</text>
  <text x="835" y="992" class="card-copy">Workbook import</text>
  <text x="835" y="1026" class="card-copy">QA · Volumetry</text>
  <rect x="835" y="1074" width="245" height="45" rx="22" fill="#FFF0D5"/>
  <text x="958" y="1104" text-anchor="middle" class="small">TECHNICAL AUTHORITY</text>

  <rect x="1165" y="895" width="315" height="260" rx="18" fill="#FFF7E8" stroke="#D38A24" stroke-width="3"/>
  <text x="1195" y="952" class="card-title">Pricing Engine</text>
  <text x="1195" y="992" class="card-copy">Decimal · SKU tiers</text>
  <text x="1195" y="1026" class="card-copy">Monthly quantities</text>
  <rect x="1195" y="1074" width="245" height="45" rx="22" fill="#FFF0D5"/>
  <text x="1318" y="1104" text-anchor="middle" class="small">COST AUTHORITY</text>

  <rect x="1525" y="895" width="315" height="260" rx="18" fill="#FFF7E8" stroke="#D38A24" stroke-width="3"/>
  <text x="1555" y="952" class="card-title">Service Rules</text>
  <text x="1555" y="992" class="card-copy">Limits · Units</text>
  <text x="1555" y="1026" class="card-copy">Interoperability</text>
  <rect x="1555" y="1074" width="245" height="45" rx="22" fill="#FFF0D5"/>
  <text x="1678" y="1104" text-anchor="middle" class="small">GOVERNED SOURCE</text>

  <rect x="805" y="1220" width="1035" height="365" rx="18" fill="#FFFFFF" stroke="#D0D5DD" stroke-width="3"/>
  <text x="845" y="1275" class="card-title">Authority boundary</text>
  <circle cx="855" cy="1330" r="8" fill="#D38A24"/>
  <text x="880" y="1338" class="card-copy">Deterministic engines own calculations and prices.</text>
  <circle cx="855" cy="1390" r="8" fill="#258A57"/>
  <text x="880" y="1398" class="card-copy">Services own validation, audit and explicit mutations.</text>
  <circle cx="855" cy="1450" r="8" fill="#D7462F"/>
  <text x="880" y="1458" class="card-copy">OCI GenAI explains and recommends; it never becomes</text>
  <text x="880" y="1492" class="card-copy">the source of truth.</text>

  <!-- Async cards -->
  <rect x="1970" y="330" width="340" height="310" rx="18" fill="#FFFFFF" stroke="#258A57" stroke-width="3"/>
  <text x="2005" y="387" class="card-title">Worker</text>
  <text x="2005" y="427" class="card-copy">Imports · Recalculate</text>
  <text x="2005" y="461" class="card-copy">Pricing · BOM</text>
  <text x="2005" y="495" class="card-copy">Synthetic · Verification</text>
  <rect x="2005" y="555" width="185" height="44" rx="22" fill="#E1F4E9"/>
  <text x="2098" y="584" text-anchor="middle" class="small">GENERAL QUEUE</text>

  <rect x="2350" y="330" width="340" height="310" rx="18" fill="#FFFFFF" stroke="#258A57" stroke-width="3"/>
  <text x="2385" y="387" class="card-title">Agent Worker</text>
  <text x="2385" y="427" class="card-copy">Function Calling</text>
  <text x="2385" y="461" class="card-copy">Guardrails · Grounding</text>
  <text x="2385" y="495" class="card-copy">Terminal AgentRun state</text>
  <rect x="2385" y="555" width="185" height="44" rx="22" fill="#E1F4E9"/>
  <text x="2478" y="584" text-anchor="middle" class="small">AGENTS QUEUE</text>

  <rect x="2730" y="330" width="340" height="310" rx="18" fill="#FFFFFF" stroke="#258A57" stroke-width="3"/>
  <text x="2765" y="387" class="card-title">Celery Beat</text>
  <text x="2765" y="427" class="card-copy">Scheduled checks</text>
  <text x="2765" y="461" class="card-copy">Stale-source scans</text>
  <text x="2765" y="495" class="card-copy">Configurable cadence</text>
  <rect x="2765" y="555" width="185" height="44" rx="22" fill="#E1F4E9"/>
  <text x="2858" y="584" text-anchor="middle" class="small">SCHEDULER</text>

  <!-- Persistence cards -->
  <rect x="1970" y="900" width="340" height="220" rx="18" fill="#FFFFFF" stroke="#475467" stroke-width="3"/>
  <text x="2005" y="957" class="card-title">PostgreSQL 16</text>
  <text x="2005" y="997" class="card-copy">Catalog · Audit · Snapshots</text>
  <text x="2005" y="1031" class="card-copy">BOM · Agent runs</text>
  <text x="2005" y="1080" class="small">SYSTEM OF RECORD</text>

  <rect x="2350" y="900" width="340" height="220" rx="18" fill="#FFFFFF" stroke="#475467" stroke-width="3"/>
  <text x="2385" y="957" class="card-title">Redis 7</text>
  <text x="2385" y="997" class="card-copy">Celery broker · Results</text>
  <text x="2385" y="1031" class="card-copy">Provider telemetry</text>
  <text x="2385" y="1080" class="small">COORDINATION</text>

  <rect x="2730" y="900" width="340" height="220" rx="18" fill="#FFFFFF" stroke="#475467" stroke-width="3"/>
  <text x="2765" y="957" class="card-title">MinIO</text>
  <text x="2765" y="997" class="card-copy">Imports · Exports</text>
  <text x="2765" y="1031" class="card-copy">Rate cards · Reports</text>
  <text x="2765" y="1080" class="small">S3-COMPATIBLE ARTIFACTS</text>

  <!-- OCI cards -->
  <rect x="1970" y="1360" width="255" height="230" rx="18" fill="#FFFFFF" stroke="#D7462F" stroke-width="3"/>
  <text x="2000" y="1415" class="card-title">GenAI</text>
  <text x="2000" y="1455" class="card-copy">Responses-first</text>
  <text x="2000" y="1489" class="card-copy">Chat fallback</text>
  <text x="2000" y="1545" class="small">ADVISORY ONLY</text>

  <rect x="2255" y="1360" width="255" height="230" rx="18" fill="#FFFFFF" stroke="#D7462F" stroke-width="3"/>
  <text x="2285" y="1415" class="card-title">Guardrails</text>
  <text x="2285" y="1455" class="card-copy">Prompt injection</text>
  <text x="2285" y="1489" class="card-copy">PII · Safety</text>
  <text x="2285" y="1545" class="small">FAIL CLOSED</text>

  <rect x="2540" y="1360" width="255" height="230" rx="18" fill="#FFFFFF" stroke="#D7462F" stroke-width="3"/>
  <text x="2570" y="1415" class="card-title">Oracle Sources</text>
  <text x="2570" y="1455" class="card-copy">Pricing · Limits</text>
  <text x="2570" y="1489" class="card-copy">Product evidence</text>
  <text x="2570" y="1545" class="small">ALLOWLISTED</text>

  <rect x="2825" y="1360" width="245" height="230" rx="18" fill="#FFFFFF" stroke="#D7462F" stroke-width="3"/>
  <text x="2855" y="1415" class="card-title">Object Storage</text>
  <text x="2855" y="1455" class="card-copy">OCI deployment</text>
  <text x="2855" y="1489" class="card-copy">artifact target</text>
  <text x="2855" y="1545" class="small">SAME S3 CONTRACT</text>

  <!-- Major connectors -->
  <path d="M 715 820 C 735 820, 735 402, 805 402" class="connector"/>
  <rect x="690" y="575" width="155" height="44" rx="22" fill="#FFFFFF" stroke="#D0D5DD" stroke-width="2"/>
  <text x="768" y="604" text-anchor="middle" class="small">HTTPS · TYPED</text>

  <path d="M 1840 402 C 1910 402, 1900 460, 1970 460" class="connector"/>
  <text x="1905" y="385" text-anchor="middle" class="small">ASYNC JOBS</text>

  <path d="M 1683 725 C 1835 760, 2210 705, 2520 330" class="connector-soft"/>
  <text x="2100" y="705" class="small">AGENT RUN</text>

  <path d="M 1322 725 C 1660 780, 1810 935, 1970 980" class="connector-soft"/>
  <path d="M 1450 725 C 1920 790, 2350 930, 2350 980" class="connector-soft"/>
  <path d="M 1480 670 C 2050 720, 2730 860, 2730 980" class="connector-soft"/>

  <path d="M 2520 640 C 2520 1020, 2098 1120, 2098 1360" class="connector-soft"/>
  <path d="M 2520 640 C 2520 1030, 2382 1135, 2382 1360" class="connector-soft"/>
  <path d="M 2140 640 C 2300 930, 2668 1080, 2668 1360" class="connector-soft"/>
  <path d="M 2900 1120 C 2900 1210, 2948 1260, 2948 1360" class="connector-dash"/>

  <!-- Footer legend -->
  <line x1="110" y1="1730" x2="260" y2="1730" class="connector-soft"/>
  <text x="285" y="1739" class="small">RUNTIME FLOW</text>
  <line x1="510" y1="1730" x2="660" y2="1730" class="connector-dash"/>
  <text x="685" y="1739" class="small">DEPLOYMENT SUBSTITUTION</text>
  <text x="3090" y="1739" text-anchor="end" class="small">Deterministic services remain authoritative</text>
</svg>
